<svg width="101" height="101" viewBox="0 0 101 101" fill="none" xmlns="http://www.w3.org/2000/svg">
<circle cx="50.714" cy="50.28" r="50" fill="#2528FF"/>
<path d="M28.2421 50.5318V84.1833L46.3622 83.8788C65.8526 83.5742 67.223 83.2697 72.3241 79.0061C81.4602 71.3165 79.7091 55.2521 69.2025 50.5318L66.2333 49.2375L68.5935 48.2478C73.3138 46.2683 76.9683 40.1775 76.9683 34.1629C76.9683 27.9198 73.3899 22.2097 67.5276 19.0882C64.6345 17.4894 63.1879 17.4132 46.3622 17.1848L28.2421 16.9564V50.5318ZM59.838 28.7573C64.8629 32.0311 64.939 39.9491 59.9902 42.9183C58.0107 44.2126 56.1074 44.441 49.4075 44.441H41.185V35.6094V26.7017L49.4837 27.0823C55.6506 27.3107 58.3153 27.7676 59.838 28.7573ZM60.7516 56.2419C65.4719 59.0589 66.8424 65.9871 63.4924 69.7938C61.0561 72.5347 57.6301 73.3722 49.1791 73.3722H41.185V63.7792V54.1863L49.7882 54.4908C56.4881 54.7192 58.8482 55.0237 60.7516 56.2419Z" fill="white"/>
<rect x="19.3746" y="44.4147" width="21.863" height="9.77672" fill="#2528FF"/>
</svg>
