<svg width="68" height="64" viewBox="0 0 68 64" fill="none" xmlns="http://www.w3.org/2000/svg">
<g clip-path="url(#clip0_12_681)">
<path d="M66.4238 0.125L37.2457 21.7147L42.6716 8.9913L66.4238 0.125Z" fill="#E17726"/>
<path d="M1.64447 0.150513L25.3332 8.9929L30.4852 21.8832L1.64447 0.150513ZM54.6815 46.0404L67.5779 46.2859L63.0708 61.597L47.3344 57.2644L54.6815 46.0404ZM13.3182 46.0404L20.638 57.2644L4.92813 61.5973L0.448364 46.2859L13.3182 46.0404Z" fill="#E27625"/>
<path d="M29.7848 18.5997L30.3118 35.6218L14.5414 34.9043L19.0273 28.1367L19.0841 28.0716L29.7848 18.5997ZM38.0518 18.4098L48.9159 28.0722L48.9722 28.137L53.4581 34.9046L37.6911 35.6218L38.0518 18.4098ZM21.0999 46.0898L29.711 52.7992L19.7081 57.6285L21.0999 46.0898ZM46.9017 46.0887L48.2646 57.6288L38.2896 52.7987L46.9017 46.0887Z" fill="#E27625"/>
<path d="M38.5098 52.1667L48.632 57.0681L39.2164 61.5428L39.3141 58.5853L38.5098 52.1667ZM29.4873 52.1689L28.7146 58.537L28.7781 61.5393L19.3405 57.0681L29.4873 52.1689Z" fill="#D5BFB2"/>
<path d="M26.5644 37.8435L29.2095 43.4025L20.204 40.7643L26.5644 37.8435ZM41.4354 37.844L47.8258 40.7643L38.7908 43.4017L41.4354 37.844Z" fill="#233447"/>
<path d="M21.7881 46.033L20.3325 57.9967L12.5303 46.2946L21.7881 46.033ZM46.2123 46.0332L55.4704 46.2946L47.639 57.9972L46.2123 46.0332ZM53.6859 34.2278L46.9484 41.0945L41.7535 38.7206L39.2665 43.9491L37.6361 34.958L53.6859 34.2278ZM14.3105 34.2278L30.3635 34.958L28.7329 43.9491L26.2453 38.7214L21.0781 41.0947L14.3105 34.2278Z" fill="#CC6228"/>
<path d="M13.8566 32.8186L21.4795 40.5539L21.7435 48.1903L13.8566 32.8186ZM54.1511 32.8048L46.2498 48.2039L46.5473 40.5539L54.1511 32.8048ZM29.9909 33.2898L30.2977 35.2209L31.0558 40.0317L30.5684 54.8071L28.2641 42.9376L28.2633 42.8149L29.9909 33.2898ZM38.0051 33.263L39.7372 42.8149L39.7364 42.9376L37.4263 54.8368L37.3349 51.8605L36.9744 39.944L38.0051 33.263Z" fill="#E27525"/>
<path d="M47.225 40.2466L46.967 46.8814L38.9255 53.1467L37.2999 51.9981L39.1221 42.6122L47.225 40.2466ZM20.803 40.2466L28.8777 42.6122L30.6999 51.9981L29.0743 53.1467L21.0325 46.8808L20.803 40.2466Z" fill="#F5841F"/>
<path d="M17.8016 55.6029L28.0898 60.4777L28.0463 58.396L28.9072 57.6402H39.0896L39.9816 58.3933L39.9157 60.4734L50.1388 55.6151L45.1642 59.7259L39.1491 63.8572H28.8245L22.8134 59.7089L17.8016 55.6029Z" fill="#C0AC9D"/>
<path d="M37.7729 51.5178L39.2274 52.5455L40.0798 59.3466L38.8463 58.3051H29.1573L27.9471 59.3676L28.7716 52.5461L30.2267 51.5178H37.7729Z" fill="#161616"/>
<path d="M64.4975 0.722656L68 11.23L65.8126 21.8542L67.3702 23.0556L65.2625 24.6637L66.8467 25.8872L64.749 27.7973L66.0368 28.7299L62.6192 32.7212L48.6022 28.6398L48.4808 28.5748L38.3799 20.054L64.4975 0.722656ZM3.50253 0.722656L29.6204 20.054L19.5192 28.5748L19.3978 28.6398L5.38077 32.7212L1.96323 28.7299L3.24992 27.7981L1.15361 25.8872L2.73461 24.665L0.595266 23.0524L2.21159 21.8502L0 11.2305L3.50253 0.722656Z" fill="#763E1A"/>
<path d="M47.9166 27.7474L62.7685 32.0715L67.5936 46.9428H54.8638L46.0928 47.0533L52.4716 34.6199L47.9166 27.7474ZM20.0834 27.7474L15.5276 34.6199L21.9072 47.0533L13.1402 46.9428H0.433228L5.23121 32.0718L20.0834 27.7474ZM43.3989 8.92041L39.2448 20.1401L38.3631 35.2967L38.0258 40.0474L37.999 52.1833H30.0007L29.9747 40.0703L29.6363 35.2927L28.7544 20.1401L24.6009 8.92041H43.3989Z" fill="#F5841F"/>
</g>
<defs>
<clipPath id="clip0_12_681">
<rect width="68" height="63.75" fill="white" transform="translate(0 0.125)"/>
</clipPath>
</defs>
</svg>
