<svg width="32" height="32" viewBox="0 0 32 32" fill="none" xmlns="http://www.w3.org/2000/svg">
<path d="M16.0001 0.583313C7.26008 0.583313 0.166748 7.48998 0.166748 16C0.166748 24.51 7.26008 31.4166 16.0001 31.4166C24.7401 31.4166 31.8334 24.51 31.8334 16C31.8334 7.48998 24.7401 0.583313 16.0001 0.583313ZM23.3467 11.0666C23.1092 13.5025 22.0801 19.4225 21.5576 22.1512C21.3359 23.3075 20.8926 23.6929 20.4809 23.7391C19.5626 23.8162 18.8659 23.1533 17.9792 22.5829C16.5859 21.6887 15.7942 21.1337 14.4484 20.2704C12.8809 19.2683 13.8942 18.7133 14.7967 17.8191C15.0342 17.5879 19.0876 13.9958 19.1667 13.6721C19.1777 13.623 19.1763 13.5721 19.1625 13.5238C19.1487 13.4754 19.123 13.4311 19.0876 13.3946C18.9926 13.3175 18.8659 13.3483 18.7551 13.3637C18.6126 13.3946 16.3959 14.8283 12.0734 17.665C11.4401 18.0812 10.8701 18.2971 10.3634 18.2816C9.79341 18.2662 8.71675 17.9733 7.90925 17.7112C6.91175 17.4029 6.13591 17.2333 6.19925 16.6937C6.23091 16.4162 6.62675 16.1387 7.37091 15.8458C11.9942 13.8879 15.0659 12.5929 16.6017 11.9762C21.0034 10.1879 21.9059 9.87956 22.5076 9.87956C22.6342 9.87956 22.9351 9.9104 23.1251 10.0646C23.2834 10.1879 23.3309 10.3575 23.3467 10.4808C23.3309 10.5733 23.3626 10.8508 23.3467 11.0666Z" fill="#2528FF"/>
</svg>
